<?xml version="1.0" ?><svg xmlns="http://www.w3.org/2000/svg" id="flat" viewBox="0 0 512 512"><title/><rect x="128" y="320" width="64" height="96" style="fill:#df6d52"/><rect x="152" y="416" width="16" height="64" style="fill:#bf5843"/><rect x="152" y="256" width="16" height="64" style="fill:#bf5843"/><rect x="224" y="168" width="64" height="168" style="fill:#71dfbf"/><rect x="248" y="336" width="16" height="64" style="fill:#3faa89"/><rect x="248" y="104" width="16" height="64" style="fill:#3faa89"/><rect x="344" y="96" width="16" height="192" style="fill:#df6d52"/><rect x="344" y="32" width="16" height="64" style="fill:#df6d52"/><rect x="416" y="120" width="64" height="168" style="fill:#71dfbf"/><rect x="440" y="288" width="16" height="64" style="fill:#3faa89"/><rect x="440" y="56" width="16" height="64" style="fill:#3faa89"/><rect x="32" y="184" width="64" height="72" style="fill:#df6d52"/><rect x="56" y="256" width="16" height="64" style="fill:#bf5843"/><rect x="56" y="120" width="16" height="64" style="fill:#bf5843"/><rect x="312" y="88" width="80" height="16" style="fill:#df6d52"/><rect x="224" y="168" width="24" height="168" style="fill:#fcfcfc;opacity:0.3"/><rect x="416" y="120" width="24" height="168" style="fill:#fcfcfc;opacity:0.3"/><rect x="128" y="320" width="24" height="96" style="fill:#fcfcfc;opacity:0.3"/><rect x="32" y="184" width="24" height="72" style="fill:#fcfcfc;opacity:0.3"/></svg>