<svg viewBox="0 0 48 48" xmlns="http://www.w3.org/2000/svg" xmlns:xlink="http://www.w3.org/1999/xlink" width="48" height="48">
<defs>



 <path fill="#29d9c2" id="i-452" d="M18.71,17.031c-1.08-2.012-0.9-4.541,0.46-6.58c2.779-4.16,1.89-7.121,1.88-7.15l-0.71-2.25l2.109,1.059 c0.271,0.131,6.471,3.301,7.54,9.73c0.2,1.17,0.45,4.111-1.34,6.23c-0.881,1.039-2.131,1.68-3.649,1.859V15h-2v4.93 C21.1,19.672,19.56,18.641,18.71,17.031z M20,24v1h8v-1c0-1.709-1.71-3-4-3C21.72,21,20,22.291,20,24z M10,26v22h28V26H10z"/> 
</defs>

<use x="0" y="0" xlink:href="#i-452"/>

</svg>